#N canvas 99 83 1366 725 12;
#X obj 28 17 cnv 15 310 510 empty empty empty 20 12 0 14 #000000 #404040
0;
#X obj 38 27 cnv 15 310 510 empty empty empty 20 12 0 14 #bbbbbb #404040
0;
#X obj 48 37 cnv 15 310 510 empty empty empty 20 12 0 14 #ffffff #404040
0;
#N canvas 0 50 450 250 (subpatch) 0;
#X coords 0 1 100 -1 310 510 1 0 0;
#X restore 48 36 graph;
#X floatatom 191 83 5 0 0 0 - - - 16;
#X obj 125 131 60000;
#X obj 173 150 /;
#X floatatom 173 200 5 0 0 0 - - - 0;
#X obj 123 106 t b;
#X msg 250 177 1;
#X msg 250 204 2;
#X msg 250 230 3;
#X msg 250 255 4;
#X obj 173 274 /;
#X floatatom 173 339 6 0 0 0 - - - 36;
#X obj 141 412 metro;
#X obj 100 397 bng 15 250 50 0 empty empty empty 17 7 0 10 #fcfcfc
#000000 #000000;
#X obj 179 454 bng 40 250 50 0 empty empty empty 17 7 0 10 #fcfcfc
#000000 #000000;
#X obj 100 255 t b;
#X obj 216 292 s t;
#X obj 100 217 r t;
#X text 285 177 1/4;
#X text 286 204 1/8;
#X text 280 231 1/12;
#X text 280 256 1/16;
#X text 166 87 BPM;
#X text 141 200 msec;
#X text 141 338 msec;
#X connect 4 0 8 0;
#X connect 4 0 6 1;
#X connect 5 0 6 0;
#X connect 6 0 7 0;
#X connect 7 0 13 0;
#X connect 8 0 5 0;
#X connect 9 0 13 1;
#X connect 9 0 19 0;
#X connect 10 0 13 1;
#X connect 10 0 19 0;
#X connect 11 0 13 1;
#X connect 11 0 19 0;
#X connect 12 0 13 1;
#X connect 12 0 19 0;
#X connect 13 0 14 0;
#X connect 14 0 15 1;
#X connect 15 0 17 0;
#X connect 16 0 15 0;
#X connect 18 0 13 0;
#X connect 18 0 16 0;
#X connect 20 0 18 0;
