#N canvas 649 177 1366 725 12;
#X floatatom 876 101 5 0 0 0 - - - 16;
#X obj 810 149 60000;
#X obj 858 168 /;
#X floatatom 858 218 5 0 0 0 - - - 0;
#X obj 808 124 t b;
#N canvas 0 50 450 250 (subpatch) 0;
#X coords 0 1 100 -1 300 500 1 0 0;
#X restore 709 68 graph;
#X text 633 69 bpm to msec;
#X text 910 194 1/1;
#X msg 935 195 1;
#X msg 935 222 2;
#X msg 935 248 3;
#X msg 935 273 4;
#X obj 858 292 /;
#X floatatom 858 333 5 0 0 0 - - - 0;
#X text 910 222 1/2;
#X text 910 248 1/3;
#X text 910 273 1/4;
#X obj 826 430 metro;
#X obj 785 415 bng 15 250 50 0 empty empty empty 17 7 0 10 #fcfcfc
#000000 #000000;
#X obj 864 472 bng 40 250 50 0 empty empty empty 17 7 0 10 #fcfcfc
#000000 #000000;
#X obj 785 273 t b;
#X connect 0 0 4 0;
#X connect 0 0 2 1;
#X connect 1 0 2 0;
#X connect 2 0 3 0;
#X connect 3 0 12 0;
#X connect 4 0 1 0;
#X connect 8 0 12 1;
#X connect 8 0 20 0;
#X connect 9 0 12 1;
#X connect 9 0 20 0;
#X connect 10 0 12 1;
#X connect 10 0 20 0;
#X connect 11 0 12 1;
#X connect 11 0 20 0;
#X connect 12 0 13 0;
#X connect 13 0 17 1;
#X connect 17 0 19 0;
#X connect 18 0 17 0;
#X connect 20 0 12 0;
#X connect 20 0 18 0;
